<?xml version="1.0" standalone="no"?>
<!DOCTYPE svg PUBLIC "-//W3C//DTD SVG 20010904//EN"
 "http://www.w3.org/TR/2001/REC-SVG-20010904/DTD/svg10.dtd">
<svg version="1.0" xmlns="http://www.w3.org/2000/svg"
 width="256.000000pt" height="256.000000pt" viewBox="0 0 256.000000 256.000000"
 preserveAspectRatio="xMidYMid meet">

<g transform="translate(0.000000,256.000000) scale(0.100000,-0.100000)"
fill="#000000" stroke="none">
<path d="M990 2343 c-41 -15 -62 -51 -96 -163 -27 -88 -42 -122 -65 -142 -36
-34 -59 -35 -199 -8 -113 22 -158 20 -183 -8 -39 -43 -247 -418 -247 -445 0
-40 13 -61 100 -160 113 -127 113 -147 0 -274 -87 -99 -100 -120 -100 -160 0
-34 217 -416 256 -451 31 -27 55 -27 179 -2 112 23 148 25 178 8 34 -18 44
-36 78 -138 66 -198 50 -190 353 -190 307 0 294 -7 356 185 37 116 69 155 124
155 19 0 78 -9 131 -20 129 -26 149 -26 184 7 17 16 80 114 141 220 138 241
139 245 47 341 -114 121 -127 139 -127 181 0 41 15 64 113 174 67 75 83 111
67 152 -6 16 -61 116 -123 223 -140 243 -135 239 -303 202 -187 -41 -204 -32
-266 149 -61 176 -40 166 -341 168 -133 1 -249 -1 -257 -4z m410 -280 c29 -90
60 -142 111 -187 85 -77 173 -97 310 -71 49 10 92 16 94 14 2 -3 33 -56 69
-118 l65 -114 -55 -61 c-79 -89 -107 -153 -108 -246 0 -95 28 -160 108 -247
54 -59 56 -64 43 -85 -8 -13 -39 -66 -70 -119 l-56 -95 -88 18 c-203 42 -344
-37 -414 -233 l-32 -89 -136 0 -137 0 -27 85 c-37 112 -85 173 -169 214 -83
41 -136 47 -232 27 -43 -9 -84 -16 -92 -16 -12 0 -144 211 -144 230 0 5 24 37
54 70 82 92 101 137 101 240 0 104 -18 148 -98 240 -32 36 -57 69 -57 73 0 7
113 209 127 226 1 2 48 -4 102 -13 80 -14 110 -16 151 -7 133 29 215 113 266
274 l18 57 137 0 137 0 22 -67z"/>
<path d="M1166 1699 c-124 -20 -249 -116 -308 -236 -32 -65 -33 -72 -33 -183
0 -111 1 -118 33 -183 131 -265 476 -324 683 -118 244 244 114 657 -225 720
-66 12 -79 12 -150 0z m175 -232 c68 -36 103 -93 107 -175 4 -83 -23 -142 -86
-187 -57 -39 -149 -47 -208 -17 -165 85 -164 298 1 385 46 25 133 21 186 -6z"/>
</g>
</svg>
