<?xml version="1.0" standalone="no"?>
<!DOCTYPE svg PUBLIC "-//W3C//DTD SVG 20010904//EN"
 "http://www.w3.org/TR/2001/REC-SVG-20010904/DTD/svg10.dtd">
<svg version="1.0" xmlns="http://www.w3.org/2000/svg"
 width="612.000000pt" height="612.000000pt" viewBox="0 0 612.000000 612.000000"
 preserveAspectRatio="xMidYMid meet">

<g transform="translate(0.000000,612.000000) scale(0.100000,-0.100000)" 
fill="#000" stroke="none">
<path d="M2930 4838 c-87 -34 -140 -96 -267 -318 -61 -107 -168 -294 -238
-415 -140 -242 -369 -639 -450 -780 -150 -261 -376 -652 -522 -905 -91 -157
-223 -384 -293 -505 -70 -121 -133 -238 -140 -260 -8 -22 -14 -69 -13 -105 0
-132 70 -243 191 -302 l67 -33 1800 0 1800 0 63 34 c118 64 185 172 185 301 1
36 -5 83 -13 105 -7 22 -106 200 -218 395 -236 408 -391 676 -585 1012 -256
445 -469 813 -507 878 -56 96 -243 422 -351 610 -109 191 -166 256 -254 289
-75 28 -180 28 -255 -1z m172 -260 c8 -7 77 -121 153 -253 76 -132 168 -292
205 -355 37 -63 152 -263 257 -445 105 -181 307 -532 450 -780 590 -1020 672
-1163 673 -1176 5 -31 -1 -50 -20 -69 -20 -20 -33 -20 -1760 -20 -1727 0
-1740 0 -1760 20 -19 19 -25 38 -21 67 2 12 50 99 186 333 43 74 110 191 150
260 40 69 98 170 130 225 32 55 134 233 228 395 93 162 227 394 297 515 312
539 467 806 595 1030 75 132 144 246 153 253 9 6 28 12 42 12 14 0 33 -6 42
-12z"/>
<path d="M2985 3805 c-60 -21 -101 -71 -115 -141 -11 -52 -9 -103 24 -439 68
-701 77 -778 87 -797 17 -32 76 -52 110 -38 61 26 48 -61 160 1095 15 156 4
219 -49 274 -55 58 -135 75 -217 46z"/>
<path d="M2974 2181 c-205 -93 -117 -404 108 -378 193 23 238 285 64 372 -59
30 -115 32 -172 6z"/>
</g>
</svg>
