<?xml version="1.0" standalone="no"?>
<!DOCTYPE svg PUBLIC "-//W3C//DTD SVG 20010904//EN"
 "http://www.w3.org/TR/2001/REC-SVG-20010904/DTD/svg10.dtd">
<svg version="1.0" xmlns="http://www.w3.org/2000/svg"
 width="1024.000000pt" height="1024.000000pt" viewBox="0 0 1024.000000 1024.000000"
 preserveAspectRatio="xMidYMid meet">

<g transform="translate(0.000000,1024.000000) scale(0.100000,-0.100000)"
fill="#000000" stroke="none">
<path d="M4850 9514 c-939 -65 -1753 -383 -2490 -970 -175 -140 -506 -471
-644 -644 -339 -426 -589 -879 -753 -1365 -240 -710 -289 -1530 -138 -2290
117 -582 354 -1130 712 -1643 625 -897 1623 -1553 2688 -1767 441 -89 962
-113 1395 -65 788 88 1504 373 2155 860 837 626 1446 1587 1650 2605 68 341
79 467 80 885 0 383 -5 456 -46 720 -200 1284 -1000 2442 -2139 3097 -540 311
-1086 490 -1710 559 -128 14 -639 26 -760 18z m432 -1472 c54 -26 106 -75 365
-334 319 -320 332 -337 353 -449 12 -64 0 -152 -31 -218 -17 -35 -159 -184
-588 -613 l-566 -568 1472 0 c1468 0 1472 0 1528 -21 74 -27 165 -112 202
-187 l28 -57 0 -460 0 -460 -27 -57 c-34 -74 -112 -152 -186 -186 l-57 -27
-1480 -3 -1479 -2 566 -568 c464 -464 571 -576 589 -617 19 -41 23 -69 23
-150 1 -161 -1 -164 -353 -516 -318 -319 -342 -337 -459 -359 -75 -13 -163 0
-231 35 -33 17 -428 406 -1392 1372 -1288 1289 -1348 1350 -1365 1403 -13 38
-19 82 -18 140 1 162 -117 30 1378 1528 732 733 1350 1345 1374 1359 69 41
119 53 209 50 67 -3 92 -9 145 -35z"/>
</g>
</svg>
